<svg width="68" height="68" viewBox="0 0 68 68" fill="none" xmlns="http://www.w3.org/2000/svg">
<path d="M54.4454 18.5301H32.5494L30.7134 14.2461C30.1775 13.0463 29.306 12.0271 28.2041 11.3112C27.1022 10.5954 25.8168 10.2134 24.5027 10.2114H13.5547C9.81472 10.2114 6.80005 13.2488 6.80005 16.9661V51.0341C6.80005 54.7514 9.83738 57.7888 13.5547 57.7888H54.4454C58.1627 57.7888 61.2001 54.7514 61.2001 51.0341V25.2848C61.2001 21.5448 58.1627 18.5301 54.4454 18.5301ZM40.188 41.5141H36.6521V45.0501C36.6521 46.5234 35.4734 47.7021 34.0001 47.7021C32.5494 47.7021 31.3481 46.5234 31.3481 45.0501V41.5141H27.8347C27.1344 41.5141 26.4627 41.2359 25.9675 40.7407C25.4723 40.2454 25.194 39.5738 25.194 38.8734C25.194 38.1731 25.4723 37.5014 25.9675 37.0062C26.4627 36.511 27.1344 36.2328 27.8347 36.2328H31.3481V32.6968C31.3481 31.2234 32.5494 30.0448 34.0001 30.0448C35.4734 30.0448 36.6521 31.2234 36.6521 32.6968V36.2328H40.188C41.6161 36.2328 42.7947 37.4114 42.7947 38.8848C42.7947 40.3354 41.6161 41.5141 40.188 41.5141Z" fill="#1AA5C0"/>
</svg>
