<svg width="26" height="27" viewBox="0 0 26 27" fill="none" xmlns="http://www.w3.org/2000/svg">
<path fill-rule="evenodd" clip-rule="evenodd" d="M13.2915 3.15205C7.5388 3.15205 2.88496 7.79121 2.88496 13.5021C2.88496 19.2129 7.5388 23.852 13.2915 23.852C19.0442 23.852 23.698 19.2129 23.698 13.5021C23.698 7.79121 19.0442 3.15205 13.2915 3.15205ZM0.584961 13.5021C0.584961 6.51034 6.27919 0.852051 13.2915 0.852051C20.3038 0.852051 25.998 6.51034 25.998 13.5021C25.998 20.4938 20.3038 26.1521 13.2915 26.1521C6.27919 26.1521 0.584961 20.4938 0.584961 13.5021Z" fill="#54BBCD"/>
<path fill-rule="evenodd" clip-rule="evenodd" d="M13.2915 5.45166C13.9266 5.45166 14.4415 5.96653 14.4415 6.60166V12.7894L18.4264 14.7721C18.995 15.055 19.2266 15.7453 18.9437 16.3139C18.6608 16.8826 17.9704 17.1142 17.4018 16.8313L12.7792 14.5313C12.3885 14.3369 12.1415 13.9381 12.1415 13.5017V6.60166C12.1415 5.96653 12.6564 5.45166 13.2915 5.45166Z" fill="#54BBCD"/>
</svg>
