<svg width="24" height="27" viewBox="0 0 24 27" fill="none" xmlns="http://www.w3.org/2000/svg">
<path fill-rule="evenodd" clip-rule="evenodd" d="M3.51147 5.16878C2.8554 5.16878 2.33333 5.6965 2.33333 6.33545V22.6688C2.33333 23.3077 2.8554 23.8354 3.51147 23.8354H19.9251C20.5812 23.8354 21.1032 23.3077 21.1032 22.6688V6.33545C21.1032 5.6965 20.5812 5.16878 19.9251 5.16878H3.51147ZM0 6.33545C0 4.39707 1.57754 2.83545 3.51147 2.83545H19.9251C21.859 2.83545 23.4366 4.39707 23.4366 6.33545V22.6688C23.4366 24.6072 21.859 26.1688 19.9251 26.1688H3.51147C1.57754 26.1688 0 24.6072 0 22.6688V6.33545Z" fill="#54BBCD"/>
<path fill-rule="evenodd" clip-rule="evenodd" d="M16.4053 0.501465C17.0496 0.501465 17.5719 1.0238 17.5719 1.66813V6.3348C17.5719 6.97913 17.0496 7.50146 16.4053 7.50146C15.7609 7.50146 15.2386 6.97913 15.2386 6.3348V1.66813C15.2386 1.0238 15.7609 0.501465 16.4053 0.501465Z" fill="#54BBCD"/>
<path fill-rule="evenodd" clip-rule="evenodd" d="M7.03129 0.501465C7.67562 0.501465 8.19796 1.0238 8.19796 1.66813V6.3348C8.19796 6.97913 7.67562 7.50146 7.03129 7.50146C6.38696 7.50146 5.86462 6.97913 5.86462 6.3348V1.66813C5.86462 1.0238 6.38696 0.501465 7.03129 0.501465Z" fill="#54BBCD"/>
<path fill-rule="evenodd" clip-rule="evenodd" d="M0 11.0021C0 10.3578 0.522335 9.83545 1.16667 9.83545H22.2699C22.9142 9.83545 23.4366 10.3578 23.4366 11.0021C23.4366 11.6464 22.9142 12.1688 22.2699 12.1688H1.16667C0.522335 12.1688 0 11.6464 0 11.0021Z" fill="#54BBCD"/>
</svg>
