<svg width="44" height="52" viewBox="0 0 44 52" fill="none" xmlns="http://www.w3.org/2000/svg">
<path d="M15.3827 43.4871H29.0333V44.244C29.0333 48.0131 25.9771 51.0693 22.208 51.0693C18.4389 51.0693 15.3827 48.0131 15.3827 44.244V43.4871Z" fill="url(#paint0_linear_293_346)"/>
<path d="M43.0931 36.2483L39.3544 32.5106C38.436 31.5923 37.9199 30.3467 37.9198 29.048V22.2795C37.9198 14.7501 32.5134 8.48401 25.3709 7.14931V4.09507C25.3709 2.34811 23.9539 0.931152 22.207 0.931152C20.46 0.931152 19.0431 2.34811 19.0431 4.09507V7.14931C11.9015 8.48401 6.49512 14.7501 6.49512 22.2795V29.048C6.49512 30.3465 5.97906 31.592 5.06151 32.5106L1.32279 36.2493C1.03562 36.5364 0.807819 36.8773 0.652402 37.2525C0.496985 37.6277 0.416993 38.0298 0.416992 38.4359C0.416992 40.1437 1.80163 41.5284 3.50942 41.5284H40.9075C42.6153 41.5284 43.9999 40.1437 43.9999 38.4359C43.9999 37.6153 43.6738 36.829 43.0941 36.2493L43.0931 36.2483Z" fill="url(#paint1_linear_293_346)"/>
<defs>
<linearGradient id="paint0_linear_293_346" x1="-5.63415" y1="35.5091" x2="12.0133" y2="61.4486" gradientUnits="userSpaceOnUse">
<stop stop-color="#2699DA"/>
<stop offset="1" stop-color="#6EDCD4"/>
</linearGradient>
<linearGradient id="paint1_linear_293_346" x1="22.2084" y1="0.931152" x2="38.048" y2="37.3376" gradientUnits="userSpaceOnUse">
<stop stop-color="#2699DA"/>
<stop offset="1" stop-color="#6EDCD4"/>
</linearGradient>
</defs>
</svg>
