<svg width="82" height="47" viewBox="0 0 82 47" fill="none" xmlns="http://www.w3.org/2000/svg">
<g filter="url(#filter0_d_283_15)">
<g clip-path="url(#clip0_283_15)">
<path d="M46.3919 20.0044L48.7368 15.0654L49.6691 13.1064L51.1806 9.89186C51.8445 8.48466 53.2854 7.57411 54.8816 7.57411H75.7457V2.35257e-05H54.8816C50.2483 2.35257e-05 46.0529 2.62129 44.1176 6.73254L42.8463 9.42279L39.5973 16.3347L33.2548 29.7721C33.057 30.186 32.4355 30.1584 32.2801 29.7307L22.6744 3.42147C21.8975 1.5038 20.1035 0.19317 17.9563 0.0138197C16.1341 -0.137938 14.3542 0.703627 13.1535 2.06945L3.99988 11.0369L9.87628 15.9898L16.7132 9.64353L25.5985 33.9248L25.7256 34.2283C26.9828 36.9047 29.6244 38.5741 32.6332 38.6154C32.6615 38.6154 32.7038 38.6154 32.7321 38.6154C35.6985 38.6154 38.3401 37.0013 39.6821 34.3248L45.7139 21.522L46.406 20.0044H46.3919Z" fill="#20A8D3"/>
<path d="M65.7441 16.1832H52.2256L48.6234 23.7711H65.7582C67.7924 23.7711 69.4451 25.3853 69.4451 27.3719C69.4451 29.3585 67.7924 30.9727 65.7582 30.9727H45.1908L41.5746 38.5606H65.7582C72.0726 38.5606 77.2144 33.5388 77.2144 27.3719C77.2144 21.205 72.0726 16.1832 65.7582 16.1832H65.7441Z" fill="#20A8D3"/>
<path d="M33.184 13.5618C36.3482 13.5618 38.9191 11.0509 38.9191 7.96061C38.9191 4.87027 36.3482 2.35938 33.184 2.35938C30.0198 2.35938 27.4489 4.87027 27.4489 7.96061C27.4489 11.0509 30.0198 13.5618 33.184 13.5618ZM31.2558 10.1137C32.0468 7.65802 31.5964 10.1137 32.6417 10.1137C33.0372 10.1137 31.7178 7.88862 31.7178 8.27491C31.7178 8.6612 33.7208 5.18759 33.3253 5.18759C32.1797 2.29871 31.3335 5.24277 30.6696 7.31219C30.5707 7.60191 30.3023 7.79506 29.9915 7.79506C29.9209 7.79506 29.8503 7.79506 29.7796 7.76747C29.4124 7.6571 29.2949 9.56682 29.4079 9.19432L31.2558 10.1137Z" fill="#20A8D3"/>
</g>
</g>
<defs>
<filter id="filter0_d_283_15" x="0" y="0" width="81.2008" height="46.6155" filterUnits="userSpaceOnUse" color-interpolation-filters="sRGB">
<feFlood flood-opacity="0" result="BackgroundImageFix"/>
<feColorMatrix in="SourceAlpha" type="matrix" values="0 0 0 0 0 0 0 0 0 0 0 0 0 0 0 0 0 0 127 0" result="hardAlpha"/>
<feOffset dy="4"/>
<feGaussianBlur stdDeviation="2"/>
<feComposite in2="hardAlpha" operator="out"/>
<feColorMatrix type="matrix" values="0 0 0 0 0 0 0 0 0 0 0 0 0 0 0 0 0 0 0.25 0"/>
<feBlend mode="normal" in2="BackgroundImageFix" result="effect1_dropShadow_283_15"/>
<feBlend mode="normal" in="SourceGraphic" in2="effect1_dropShadow_283_15" result="shape"/>
</filter>
<clipPath id="clip0_283_15">
<rect width="73.2008" height="38.6154" fill="white" transform="translate(4)"/>
</clipPath>
</defs>
</svg>
