<svg width="74" height="39" viewBox="0 0 74 39" fill="none" xmlns="http://www.w3.org/2000/svg">
<g clip-path="url(#clip0_293_325)">
<path d="M42.3919 20.0044L44.7368 15.0654L45.6691 13.1064L47.1806 9.89186C47.8445 8.48466 49.2854 7.57411 50.8816 7.57411H71.7457V2.35256e-05H50.8816C46.2483 2.35256e-05 42.0529 2.62129 40.1176 6.73254L38.8463 9.42279L35.5973 16.3347L29.2548 29.7721C29.057 30.186 28.4355 30.1584 28.2801 29.7307L18.6744 3.42147C17.8975 1.5038 16.1035 0.19317 13.9563 0.0138197C12.1341 -0.137938 10.3542 0.703627 9.15351 2.06945L-0.00012207 11.0369L5.87628 15.9898L12.7132 9.64353L21.5985 33.9248L21.7256 34.2283C22.9828 36.9047 25.6244 38.5741 28.6332 38.6154C28.6615 38.6154 28.7038 38.6154 28.7321 38.6154C31.6985 38.6154 34.3401 37.0013 35.6821 34.3248L41.7139 21.522L42.406 20.0044H42.3919Z" fill="#20A8D3"/>
<path d="M61.7441 16.1832H48.2256L44.6234 23.7711H61.7582C63.7924 23.7711 65.4451 25.3853 65.4451 27.3719C65.4451 29.3585 63.7924 30.9727 61.7582 30.9727H41.1908L37.5746 38.5606H61.7582C68.0726 38.5606 73.2144 33.5388 73.2144 27.3719C73.2144 21.205 68.0726 16.1832 61.7582 16.1832H61.7441Z" fill="#20A8D3"/>
<path d="M29.184 13.5618C32.3482 13.5618 34.9191 11.0509 34.9191 7.96061C34.9191 4.87027 32.3482 2.35938 29.184 2.35938C26.0198 2.35938 23.4489 4.87027 23.4489 7.96061C23.4489 11.0509 26.0198 13.5618 29.184 13.5618ZM27.2558 10.1137C28.0468 7.65802 27.5964 10.1137 28.6417 10.1137C29.0372 10.1137 27.7178 7.88862 27.7178 8.27491C27.7178 8.6612 29.7208 5.18759 29.3253 5.18759C28.1797 2.29871 27.3335 5.24277 26.6696 7.31219C26.5707 7.60191 26.3023 7.79506 25.9915 7.79506C25.9209 7.79506 25.8503 7.79506 25.7796 7.76747C25.4124 7.6571 25.2949 9.56682 25.4079 9.19432L27.2558 10.1137Z" fill="#20A8D3"/>
</g>
<defs>
<clipPath id="clip0_293_325">
<rect width="73.2008" height="38.6154" fill="white"/>
</clipPath>
</defs>
</svg>
